<svg xmlns="http://www.w3.org/2000/svg" viewBox="0 0 48 48">
  <defs>
    <linearGradient id="rainbow-grad" x1="0%" y1="0%" x2="100%" y2="0%">
      <stop offset="0%" style="stop-color:#FF6B6B"/>
      <stop offset="20%" style="stop-color:#FFA06B"/>
      <stop offset="40%" style="stop-color:#FFD93D"/>
      <stop offset="60%" style="stop-color:#6BCB77"/>
      <stop offset="80%" style="stop-color:#4D96FF"/>
      <stop offset="100%" style="stop-color:#9B59B6"/>
    </linearGradient>
  </defs>

  <!-- GitHub Octocat -->
  <g transform="translate(8, 8) scale(0.32)">
    <path fill="url(#rainbow-grad)"
      d="M256 0C114.6 0 0 114.6 0 256c0 113.1 73.4 209 175.1 242.9 12.8 2.3 17.5-5.6 17.5-12.4 0-6.1-.2-22.3-.3-43.8-71.2 15.5-86.2-34.3-86.2-34.3-11.6-29.6-28.4-37.5-28.4-37.5-23.2-15.9 1.8-15.6 1.8-15.6 25.7 1.8 39.2 26.4 39.2 26.4 22.8 39.1 59.9 27.8 74.5 21.3 2.3-16.5 8.9-27.8 16.2-34.2-56.9-6.5-116.8-28.5-116.8-126.8 0-28 10-50.9 26.4-68.9-2.6-6.5-11.5-32.5 2.5-67.8 0 0 21.6-6.9 70.7 26.3 20.5-5.7 42.5-8.5 64.3-8.6 21.8.1 43.8 2.9 64.3 8.6 49.1-33.2 70.7-26.3 70.7-26.3 14 35.3 5.1 61.3 2.5 67.8 16.4 18 26.4 40.9 26.4 68.9 0 98.5-60 120.1-116.9 126.6 9.2 7.9 17.4 23.6 17.4 47.6 0 34.4-.3 62.1-.3 70.5 0 6.9 4.6 14.9 17.7 12.4C438.6 465 512 369.1 512 256 512 114.6 397.4 0 256 0z"/>
  </g>
</svg>
